# xmcd
#
# Track frame offsets: 
#        150
#        18069
#        35301
#        54354
#        70995
#        90483
#        103342
#        126245
#        147431
#        169639
#        189878
#        213474
#        234020
#        256443
#        277726
#
# Disc length: 3998 seconds
#
# Revision: 0
# Processed by: cddbd v1.5.2PL0 Copyright (c) Steve Scherf et al.
# Submitted via: ExactAudioCopy v0.99pb5
#
DISCID=c30f9c0f
DTITLE=Walking Papers - Walking Papers
DYEAR=2013
DGENRE=Blues
TTITLE0=Already Dead
TTITLE1=The Whole World's Watching
TTITLE2=Your Secret's Safe With Me
TTITLE3=Red Envelopes
TTITLE4=Leave Me In The Dark
TTITLE5=The Butcher
TTITLE6=Two Tickets And A Room
TTITLE7=I'll Stick Around
TTITLE8=Capital T
TTITLE9=A Place Like This
TTITLE10=Independence Day
TTITLE11=Already Dead (Live)
TTITLE12=Two Tickets and a Room (Live)
TTITLE13=Leave Me in the Dark (Live) ft. Mike McCready and Synergia NW O
TTITLE13=rchestra
TTITLE14=Whole World's Watching (Live) ft. Mike McCready and Synergia NW
TTITLE14=Orchestra
EXTD=
EXTT0=
EXTT1=
EXTT2=
EXTT3=
EXTT4=
EXTT5=
EXTT6=
EXTT7=
EXTT8=
EXTT9=
EXTT10=
EXTT11=
EXTT12=
EXTT13=
EXTT14=
PLAYORDER=
